<svg xmlns="http://www.w3.org/2000/svg" viewBox="0 0 512 512" width="512" height="512">
  <rect width="512" height="512" rx="112" fill="#ffffff"/>
  <g>
    <!-- Lean mark: stacked two-tone horizontal bars (indigo + magenta) -->
    <rect x="100" y="121" width="150" height="30" rx="15" fill="#2E2A7A"/>
    <rect x="266" y="121" width="110" height="30" rx="15" fill="#C21B8C"/>

    <rect x="100" y="169" width="105" height="30" rx="15" fill="#2E2A7A"/>
    <rect x="221" y="169" width="165" height="30" rx="15" fill="#C21B8C"/>

    <rect x="100" y="217" width="175" height="30" rx="15" fill="#2E2A7A"/>
    <rect x="291" y="217" width="95"  height="30" rx="15" fill="#C21B8C"/>

    <rect x="100" y="265" width="95"  height="30" rx="15" fill="#2E2A7A"/>
    <rect x="211" y="265" width="160" height="30" rx="15" fill="#C21B8C"/>

    <rect x="100" y="313" width="155" height="30" rx="15" fill="#2E2A7A"/>
    <rect x="271" y="313" width="115" height="30" rx="15" fill="#C21B8C"/>

    <rect x="100" y="361" width="120" height="30" rx="15" fill="#2E2A7A"/>
    <rect x="236" y="361" width="150" height="30" rx="15" fill="#C21B8C"/>
  </g>
</svg>
